<svg width="24" height="24" viewBox="0 0 24 24" fill="none" xmlns="http://www.w3.org/2000/svg">
<path fill-rule="evenodd" clip-rule="evenodd" d="M5.07034 5.64844H18.9296C19.5422 5.64844 20.1297 5.8918 20.5629 6.32498C20.9961 6.75817 21.2394 7.34569 21.2394 7.95831V16.0429C21.2394 16.6555 20.9961 17.243 20.5629 17.6762C20.1297 18.1094 19.5422 18.3527 18.9296 18.3527H5.07034C4.45772 18.3527 3.8702 18.1094 3.43701 17.6762C3.00383 17.243 2.76047 16.6555 2.76047 16.0429V7.95831C2.76047 7.34569 3.00383 6.75817 3.43701 6.32498C3.8702 5.8918 4.45772 5.64844 5.07034 5.64844Z" stroke="#6A6A6A" stroke-width="1.2" stroke-linecap="round" stroke-linejoin="round"/>
<path fill-rule="evenodd" clip-rule="evenodd" d="M2.18286 9.69141H21.8168V12.0013H2.18286V9.69141Z" fill="#6A6A6A"/>
</svg>
