<svg width="24" height="24" viewBox="0 0 24 24" fill="none" xmlns="http://www.w3.org/2000/svg">
<path d="M21.2861 12C21.2861 14.4628 20.3078 16.8248 18.5663 18.5663C16.8248 20.3077 14.4628 21.2861 12 21.2861C9.53718 21.2861 7.17522 20.3077 5.43374 18.5663C3.69225 16.8248 2.7139 14.4628 2.7139 12M21.2861 12C21.2861 9.53715 20.3078 7.17519 18.5663 5.43371C16.8248 3.69222 14.4628 2.71387 12 2.71387C9.53718 2.71387 7.17522 3.69222 5.43374 5.43371C3.69225 7.17519 2.7139 9.53715 2.7139 12M21.2861 12H2.7139" stroke="#6A6A6A" stroke-width="1.2" stroke-linecap="round" stroke-linejoin="round"/>
<path d="M15.5717 12C15.3962 15.3958 14.1454 18.6479 12.0001 21.2861C9.85473 18.6479 8.60393 15.3958 8.4285 12C8.60393 8.60413 9.85473 5.35205 12.0001 2.71387C14.1454 5.35205 15.3962 8.60413 15.5717 12Z" stroke="#6A6A6A" stroke-width="1.2" stroke-linecap="round" stroke-linejoin="round"/>
</svg>
