<svg width="24" height="24" viewBox="0 0 24 24" fill="none" xmlns="http://www.w3.org/2000/svg">
<path d="M0.624512 16.9053L5.67941 21.1164C6.42249 21.736 7.35928 22.0756 8.32683 22.0761H21.6528C22.6042 22.0761 23.3757 21.3025 23.3757 20.3511C23.3757 18.4483 21.8328 16.9033 19.9279 16.9033H10.664" stroke="#080808" stroke-width="1.2" stroke-linecap="round" stroke-linejoin="round"/>
<path d="M6.82938 14.8367L8.3806 16.3879C8.79201 16.7993 9.35 17.0304 9.93182 17.0304C10.5136 17.0304 11.0716 16.7993 11.483 16.3879C11.8944 15.9765 12.1256 15.4185 12.1256 14.8367C12.1256 14.2549 11.8944 13.6969 11.483 13.2855L9.07555 10.8759C8.69086 10.4916 8.23418 10.187 7.73165 9.97938C7.22911 9.77176 6.69058 9.66526 6.14685 9.66596H0.624512" stroke="#080808" stroke-width="1.2" stroke-linecap="round" stroke-linejoin="round"/>
<path d="M20.5611 1.79712C20.6769 1.81928 20.7794 1.88608 20.8457 1.98359C20.912 2.08113 20.9364 2.20096 20.9144 2.3168L20.7703 3.07272C21.1576 3.19175 21.5068 3.41306 21.7791 3.71538C22.0821 4.05188 22.2759 4.47215 22.3357 4.921C22.3954 5.37011 22.3184 5.82752 22.1137 6.23171C21.9449 6.56479 21.6949 6.84756 21.3903 7.05913C21.7973 7.34373 22.1101 7.7461 22.2833 8.21555C22.4838 8.75948 22.4851 9.35773 22.2859 9.90212C22.0866 10.4464 21.6999 10.9026 21.1956 11.1885C20.6915 11.4743 20.102 11.5714 19.5328 11.463L19.1836 11.3965L19.0422 12.138C19.0201 12.2538 18.9533 12.3563 18.8558 12.4226C18.7583 12.4889 18.6384 12.5133 18.5226 12.4913C18.4068 12.4692 18.3043 12.4022 18.238 12.3048C18.1717 12.2073 18.1463 12.0873 18.1683 11.9714L18.3097 11.2299L17.6123 11.0969L17.4709 11.8385C17.4488 11.9543 17.3819 12.0567 17.2845 12.123C17.187 12.1893 17.0671 12.2137 16.9512 12.1917C16.8354 12.1697 16.733 12.1027 16.6667 12.0053C16.6004 11.9077 16.575 11.7877 16.597 11.6719L16.7384 10.9304L15.2112 10.6392C15.0953 10.6171 14.9931 10.5494 14.9268 10.4518C14.8606 10.3543 14.836 10.2344 14.8581 10.1186C14.8802 10.0028 14.947 9.90031 15.0446 9.83403C15.1421 9.76775 15.2619 9.74327 15.3778 9.76532L15.7269 9.83188L16.9832 3.24157L16.634 3.17501C16.5182 3.1529 16.4158 3.08603 16.3495 2.98854C16.2832 2.89104 16.2588 2.77114 16.2808 2.65533C16.3029 2.53941 16.3698 2.43614 16.4674 2.3698C16.5649 2.30363 16.6849 2.27906 16.8006 2.30109L18.3278 2.59221L18.4692 1.85068C18.4913 1.73482 18.559 1.63261 18.6566 1.5663C18.7541 1.50009 18.874 1.47552 18.9898 1.49759C19.1056 1.51975 19.2081 1.58656 19.2744 1.68406C19.3406 1.78159 19.3651 1.90144 19.3431 2.01727L19.2017 2.7588L19.8991 2.89174L20.0405 2.15021C20.0626 2.03435 20.1304 1.93214 20.2279 1.86583C20.3255 1.79961 20.4453 1.77504 20.5611 1.79712ZM16.6009 9.99847L19.6994 10.5891C20.1043 10.6662 20.5231 10.5786 20.864 10.3469C21.2049 10.1151 21.4404 9.75796 21.5177 9.35305C21.5949 8.94804 21.5074 8.52848 21.2756 8.1875C21.0438 7.84673 20.6864 7.61199 20.2816 7.53475L17.1831 6.9441L16.6009 9.99847ZM17.3497 6.07018L19.8582 6.54837C20.2111 6.61565 20.5766 6.53931 20.8737 6.33733C21.1708 6.13535 21.3763 5.82362 21.4435 5.47069C21.5107 5.11793 21.4342 4.75316 21.2323 4.45617C21.0303 4.15904 20.7186 3.95362 20.3657 3.88635L17.8571 3.40816L17.3497 6.07018Z" fill="#080808" stroke="#080808" stroke-width="0.29"/>
</svg>
