<svg width="24" height="24" viewBox="0 0 24 24" fill="none" xmlns="http://www.w3.org/2000/svg">
<path d="M13.4233 7.96915C13.5383 7.99112 13.6401 8.05746 13.7061 8.15429C13.7721 8.25134 13.797 8.37126 13.775 8.48654L13.6289 9.25301C14.0205 9.37234 14.3734 9.59629 14.6485 9.9017C14.9534 10.2403 15.1485 10.6633 15.2085 11.1149C15.2686 11.5665 15.191 12.0259 14.9853 12.4324C14.8144 12.7698 14.5605 13.0564 14.251 13.2697C14.664 13.5563 14.9812 13.9642 15.1564 14.4394C15.358 14.9863 15.3586 15.5873 15.1583 16.1348C14.9579 16.6824 14.5689 17.1412 14.0616 17.4289C13.5543 17.7165 12.9613 17.8145 12.3885 17.7054L12.0306 17.6372L11.8869 18.3912C11.8649 18.5065 11.7977 18.6088 11.7006 18.6748C11.6037 18.7405 11.4846 18.7648 11.3695 18.7429C11.2542 18.7209 11.1517 18.6546 11.0857 18.5576C11.0197 18.4605 10.9958 18.3408 11.0178 18.2255L11.1615 17.4715L10.4459 17.3351L10.3022 18.0891C10.2802 18.2044 10.2129 18.3067 10.1159 18.3727C10.0189 18.4385 9.89984 18.4627 9.78477 18.4408C9.66951 18.4189 9.56696 18.3525 9.50098 18.2555C9.435 18.1584 9.41108 18.0387 9.43305 17.9234L9.57678 17.1694L8.03041 16.8747C7.91513 16.8527 7.81278 16.7854 7.7468 16.6884C7.68106 16.5914 7.65675 16.4724 7.67869 16.3573C7.70064 16.2422 7.76701 16.1404 7.86383 16.0744C7.96089 16.0085 8.0808 15.9836 8.19608 16.0055L8.5539 16.0738L9.82315 9.41533L9.46534 9.34712C9.35005 9.32514 9.2477 9.25789 9.18173 9.16083C9.11595 9.06389 9.09173 8.94482 9.11362 8.82972C9.13559 8.71444 9.20189 8.61191 9.29894 8.54593C9.39599 8.47996 9.51574 8.45603 9.63101 8.478L11.1774 8.77278L11.3211 8.01878C11.3431 7.90351 11.4094 7.80096 11.5064 7.73498C11.6035 7.66901 11.7232 7.64508 11.8385 7.66706C11.9536 7.68904 12.0554 7.75537 12.1213 7.8522C12.1873 7.94925 12.2122 8.06917 12.1902 8.18445L12.0465 8.93845L12.7621 9.07487L12.9059 8.32087C12.9278 8.20561 12.9942 8.10305 13.0912 8.03707C13.1882 7.9711 13.308 7.94717 13.4233 7.96915ZM9.42301 16.2394L12.5541 16.8363C12.9642 16.9144 13.3888 16.8267 13.734 16.592C14.0793 16.3573 14.3171 15.9948 14.3953 15.5847C14.4735 15.1746 14.3856 14.7501 14.151 14.4048C13.9163 14.0595 13.5538 13.8217 13.1437 13.7435L10.0126 13.1467L9.42301 16.2394ZM10.1782 12.2776L12.7146 12.7611C13.0722 12.8292 13.4424 12.7522 13.7435 12.5476C14.0445 12.3429 14.2523 12.027 14.3205 11.6694C14.3885 11.312 14.3113 10.9424 14.1068 10.6415C13.9022 10.3404 13.5862 10.1327 13.2286 10.0645L10.6923 9.581L10.1782 12.2776Z" fill="#080808" stroke="#080808" stroke-width="0.28"/>
<rect x="2.75137" y="5.36855" width="18.4978" height="15.8245" rx="2.4" stroke="#080808" stroke-width="1.2"/>
<path d="M2.75195 8.54678C2.75195 5.85122 2.75195 4.50344 3.55603 3.6396C3.60484 3.58716 3.65552 3.53648 3.70796 3.48767C4.5718 2.68359 5.91958 2.68359 8.61514 2.68359H15.7359" stroke="#080808" stroke-width="1.2" stroke-linecap="round" stroke-linejoin="round"/>
</svg>
