<svg width="24" height="24" viewBox="0 0 24 24" fill="none" xmlns="http://www.w3.org/2000/svg">
<path d="M22.9563 8.71339V17.4784C22.9563 18.0596 22.7254 18.6169 22.3145 19.0279C21.9036 19.4388 21.3462 19.6697 20.765 19.6697H3.23496C2.6538 19.6697 2.09645 19.4388 1.68551 19.0279C1.27457 18.6169 1.0437 18.0596 1.0437 17.4784V6.52213C1.0437 5.94097 1.27457 5.38362 1.68551 4.97268C2.09645 4.56174 2.6538 4.33087 3.23496 4.33087H20.765C21.3462 4.33087 21.9036 4.56174 22.3145 4.97268C22.7254 5.38362 22.9563 5.94097 22.9563 6.52213V8.71339ZM22.9563 8.71339H5.42622" stroke="#080808" stroke-width="1.2" stroke-linecap="round" stroke-linejoin="round"/>
</svg>
