<svg width="24" height="24" viewBox="0 0 24 24" fill="none" xmlns="http://www.w3.org/2000/svg">
<path d="M21.5523 19.2205H2.44774C1.80827 19.2205 1.28989 19.7389 1.28989 20.3783V21.5362C1.28989 22.1757 1.80827 22.694 2.44774 22.694H21.5523C22.1917 22.694 22.7101 22.1757 22.7101 21.5362V20.3783C22.7101 19.7389 22.1917 19.2205 21.5523 19.2205Z" stroke="#080808" stroke-width="1.2" stroke-linecap="round" stroke-linejoin="round"/>
<path d="M4.18451 9.37602V19.2293M19.8155 9.37602V19.2293M14.8946 9.37602V19.2293M9.10537 9.37602V19.2293M10.8885 1.59064L1.89197 6.5115C1.70976 6.6112 1.55773 6.75807 1.4518 6.93672C1.34587 7.11538 1.28994 7.31924 1.28989 7.52693V8.68131C1.28989 8.86556 1.36308 9.04226 1.49336 9.17254C1.62365 9.30283 1.80035 9.37602 1.9846 9.37602H22.0154C22.1997 9.37602 22.3764 9.30283 22.5066 9.17254C22.6369 9.04226 22.7101 8.86556 22.7101 8.68131V7.52693C22.7101 7.31924 22.6541 7.11538 22.5482 6.93672C22.4423 6.75807 22.2902 6.6112 22.108 6.5115L13.1115 1.59064C12.7707 1.40416 12.3885 1.30643 12 1.30643C11.6115 1.30643 11.2293 1.40416 10.8885 1.59064Z" stroke="#080808" stroke-width="1.2" stroke-linecap="round" stroke-linejoin="round"/>
</svg>
