<svg width="24" height="24" viewBox="0 0 24 24" fill="none" xmlns="http://www.w3.org/2000/svg">
<rect x="0.6" y="4.89395" width="22.8" height="14.2121" rx="2.4" stroke="#080808" stroke-width="1.2"/>
<line x1="6.61829" y1="4.99146" x2="6.61829" y2="18.9207" stroke="#080808"/>
<line x1="23.2485" y1="11.3686" x2="0.751923" y2="11.3686" stroke="#080808" stroke-width="1.2"/>
<path d="M7.21196 11.3828C7.21196 12.005 7.45913 12.6018 7.8991 13.0417C8.33907 13.4817 8.9358 13.7289 9.55801 13.7289M6.03893 11.3828C6.03893 12.005 5.79175 12.6018 5.35178 13.0417C4.91181 13.4817 4.31508 13.7289 3.69287 13.7289" stroke="#080808" stroke-width="1.2" stroke-linecap="round"/>
<path d="M6.62548 10.2306C6.62581 9.80596 6.76794 9.39356 7.02932 9.05887C7.29071 8.72417 7.65637 8.48634 8.0683 8.38311C9.00849 8.14851 9.86069 9.00013 9.6255 9.94089C9.52227 10.3528 9.28444 10.7185 8.94974 10.9799C8.61505 11.2413 8.20265 11.3834 7.77798 11.3837H6.62548M6.62548 10.2306V11.3837M6.62548 10.2306C6.62515 9.80596 6.48302 9.39356 6.22163 9.05887C5.96025 8.72417 5.59459 8.48634 5.18265 8.38311C4.24247 8.14851 3.39027 9.00013 3.62546 9.94089C3.72869 10.3528 3.96651 10.7185 4.30121 10.9799C4.63591 11.2413 5.04831 11.3834 5.47298 11.3837H6.62548" stroke="#080808" stroke-width="1.2"/>
</svg>
