<svg width="25" height="24" viewBox="0 0 25 24" fill="none" xmlns="http://www.w3.org/2000/svg">
<path d="M2.05521 15.5313C2.84865 13.8631 3.24594 13.0284 3.93748 12.5464C3.99396 12.5075 4.05121 12.4701 4.10922 12.4342C4.82709 12.0003 5.70869 12.0003 7.47075 12.0003C9.2328 12.0003 10.1133 12.0003 10.8334 12.4354C10.8907 12.4705 10.9475 12.5071 11.004 12.5453C11.6956 13.0284 12.0928 13.862 12.8874 15.5313C14.0713 18.0192 14.6621 19.2638 14.1606 20.1774L14.1011 20.2793C13.5481 21.1598 12.2348 21.1598 9.61177 21.1598H5.32972C2.70553 21.1598 1.39229 21.1598 0.839287 20.2782L0.779751 20.1774C0.277124 19.2638 0.869055 18.0192 2.05292 15.5313M14.9666 12.0232C15.42 12.0003 15.9616 12.0003 16.6291 12.0003C18.39 12.0003 19.2716 12.0003 19.9917 12.4354C20.049 12.4705 20.1059 12.5071 20.1623 12.5453C20.8539 13.0284 21.2512 13.862 22.0458 15.5313C23.2296 18.0192 23.8204 19.2638 23.3189 20.1774C23.3006 20.2118 23.2808 20.2457 23.2594 20.2793C22.7064 21.1598 21.3931 21.1598 18.769 21.1598H17.4763M18.4701 8.56549C18.2228 7.96097 17.8805 7.24195 17.4672 6.3718C16.6726 4.70363 16.2764 3.86897 15.5837 3.38695C15.5276 3.34785 15.4704 3.31043 15.412 3.27475C14.6941 2.84082 13.8125 2.84082 12.0505 2.84082C10.2884 2.84082 9.40797 2.84082 8.68781 3.2759C8.63056 3.31024 8.57332 3.34688 8.51607 3.38581C7.82568 3.86897 7.42838 4.70248 6.6338 6.3718C6.21933 7.24195 5.87814 7.96097 5.63084 8.56549" stroke="#080808" stroke-width="1.2" stroke-linecap="round" stroke-linejoin="round"/>
</svg>
