<svg width="26" height="24" viewBox="0 0 26 24" fill="none" xmlns="http://www.w3.org/2000/svg">
<path d="M6.16323 19.6367C7.93016 21.4037 10.2551 22.5032 12.742 22.748C15.2288 22.9928 17.7235 22.3677 19.8011 20.9792C21.8787 19.5907 23.4105 17.5248 24.1355 15.1334C24.8604 12.7421 24.7338 10.1733 23.777 7.86489C22.8202 5.55647 21.0926 3.65125 18.8885 2.4739C16.6844 1.29655 14.1403 0.919938 11.6896 1.40823C9.23893 1.89653 7.03342 3.21952 5.44891 5.15175C3.8644 7.08398 2.99894 9.50588 3.00003 12.0047V14.3999" stroke="#080808" stroke-width="1.2" stroke-linecap="round" stroke-linejoin="round"/>
<path d="M0.600006 11.9999L3 14.3999L5.4 11.9999M12.6 7.19994V13.1999H18.6" stroke="#080808" stroke-width="1.2" stroke-linecap="round" stroke-linejoin="round"/>
</svg>
