<svg width="24" height="24" viewBox="0 0 24 24" fill="none" xmlns="http://www.w3.org/2000/svg">
<path d="M12 23.2393C13.4759 23.2393 14.9373 22.9486 16.3009 22.3838C17.6644 21.819 18.9034 20.9911 19.947 19.9475C20.9906 18.9039 21.8185 17.6649 22.3833 16.3014C22.9481 14.9378 23.2388 13.4764 23.2388 12.0005C23.2388 10.5246 22.9481 9.06315 22.3833 7.6996C21.8185 6.33605 20.9906 5.09709 19.947 4.05348C18.9034 3.00986 17.6644 2.18202 16.3009 1.61722C14.9373 1.05242 13.4759 0.761719 12 0.761719M12 23.2393C10.5241 23.2393 9.06266 22.9486 7.69911 22.3838C6.33556 21.819 5.09661 20.9911 4.05299 19.9475C3.00937 18.9039 2.18153 17.6649 1.61673 16.3014C1.05193 14.9378 0.76123 13.4764 0.76123 12.0005C0.76123 10.5246 1.05193 9.06315 1.61673 7.6996C2.18153 6.33605 3.00937 5.09709 4.05299 4.05348C5.09661 3.00986 6.33556 2.18202 7.69911 1.61722C9.06266 1.05242 10.5241 0.761719 12 0.761719M12 23.2393C15.4478 23.2393 16.9213 16.7919 16.9213 12.0005C16.9213 7.20903 15.4478 0.761719 12 0.761719M12 23.2393C8.5522 23.2393 7.07867 16.7919 7.07867 12.0005C7.07867 7.20903 8.5522 0.761719 12 0.761719M1.38561 8.25423H22.6144M1.38561 15.7467H22.6144" stroke="#080808" stroke-width="1.2" stroke-linecap="round" stroke-linejoin="round"/>
</svg>
