<svg width="24" height="24" viewBox="0 0 24 24" fill="none" xmlns="http://www.w3.org/2000/svg">
<path d="M22.7935 22.793H1.20703M14.1589 8.76181H9.8416M14.1589 15.2377H9.8416M6.06506 7.68249H6.05534M6.06614 11.9998H6.05534M6.06614 16.3171H6.05534M17.9376 7.68249H17.9279M17.9387 11.9998H17.9279M17.9387 16.3171H17.9279M21.7141 7.12664C21.7141 5.94154 21.7141 5.35007 21.4162 4.84927C21.1184 4.34846 20.569 4.02251 19.4713 3.3652L18.0747 2.52981C16.351 1.49797 15.4886 0.982059 14.8237 1.30154C14.1589 1.62102 14.1589 2.55031 14.1589 4.4089V22.793H21.7141V7.12664ZM2.28635 7.12664C2.28635 5.94154 2.28635 5.35007 2.58425 4.84927C2.88214 4.34846 3.43151 4.02251 4.52918 3.3652L5.92582 2.52981C7.65058 1.4969 8.51188 0.9799 9.17674 1.30046C9.8416 1.62102 9.8416 2.55031 9.8416 4.4089V22.793H2.28635V7.12664Z" stroke="#080808" stroke-width="1.2" stroke-linecap="round" stroke-linejoin="round"/>
</svg>
