<svg width="24" height="24" viewBox="0 0 24 24" fill="none" xmlns="http://www.w3.org/2000/svg">
<path d="M4.13712 11.4599V19.3228C4.13712 19.8441 4.34422 20.3441 4.71286 20.7127C5.0815 21.0814 5.58149 21.2885 6.10283 21.2885H17.8971C18.4185 21.2885 18.9185 21.0814 19.2871 20.7127C19.6558 20.3441 19.8629 19.8441 19.8629 19.3228V11.4599" stroke="#6A6A6A" stroke-width="1.2" stroke-linecap="round" stroke-linejoin="round"/>
<path d="M12 6.05414C12 5.1418 11.6376 4.26682 10.9924 3.62169C10.3473 2.97656 9.47234 2.61414 8.55999 2.61414C7.90832 2.61414 7.28333 2.87301 6.82253 3.33382C6.36172 3.79462 6.10284 4.41961 6.10284 5.07128C6.10284 5.72296 6.36172 6.34795 6.82253 6.80875C7.28333 7.26955 7.90832 7.52843 8.55999 7.52843H12M12 6.05414V7.52843M12 6.05414C12 5.1418 12.3624 4.26682 13.0076 3.62169C13.6527 2.97656 14.5277 2.61414 15.44 2.61414C16.0917 2.61414 16.7167 2.87301 17.1775 3.33382C17.6383 3.79462 17.8972 4.41961 17.8972 5.07128C17.8972 5.39396 17.8336 5.71348 17.7101 6.01159C17.5866 6.30971 17.4056 6.58058 17.1775 6.80875C16.9493 7.03692 16.6784 7.21791 16.3803 7.34139C16.0822 7.46488 15.7627 7.52843 15.44 7.52843H12" stroke="#6A6A6A" stroke-width="1.2" stroke-linejoin="round"/>
<path d="M12 11.4596V21.2882M3.15427 7.5282H20.8457V11.4596H3.15427V7.5282Z" stroke="#6A6A6A" stroke-width="1.2" stroke-linecap="round" stroke-linejoin="round"/>
</svg>
