<svg width="25" height="25" viewBox="0 0 25 25" fill="none" xmlns="http://www.w3.org/2000/svg">
<path d="M22.5475 10.1691V22.5475C22.5475 22.8802 22.4154 23.1992 22.1802 23.4344C21.945 23.6696 21.626 23.8017 21.2934 23.8017H3.10829C2.77567 23.8017 2.45668 23.6696 2.22148 23.4344C1.98628 23.1992 1.85415 22.8802 1.85415 22.5475V10.1691M12.2008 6.1747C8.59643 0.61006 6.48696 -0.655372 4.52297 1.78519C2.47244 4.33361 7.04944 6.1747 12.2008 6.1747ZM12.2008 6.1747L8.93944 4.51358M12.2008 6.1747C15.8052 0.61006 17.9147 -0.655372 19.8787 1.78519C21.9292 4.33361 17.3522 6.1747 12.2008 6.1747ZM12.2008 6.1747L15.4622 4.51358M0.600006 6.1747H23.8017V10.1685H0.600006V6.1747Z" stroke="#080808" stroke-width="1.2" stroke-linecap="round" stroke-linejoin="round"/>
<path d="M13.2822 13.0203C13.3868 13.0403 13.4795 13.1006 13.5394 13.1886C13.5993 13.2768 13.6211 13.3859 13.6011 13.4907L13.5029 14.0058C13.785 14.1029 14.0394 14.2694 14.2403 14.4924C14.4785 14.7569 14.6308 15.0878 14.6779 15.4407C14.7248 15.7937 14.6642 16.1534 14.5033 16.4711C14.3843 16.7061 14.2142 16.9099 14.0075 17.0695C14.2908 17.2884 14.5102 17.5825 14.6353 17.9219C14.7923 18.348 14.7922 18.8159 14.6362 19.2423C14.48 19.6689 14.1779 20.0266 13.7828 20.2507C13.3877 20.4748 12.9254 20.5514 12.4791 20.4665L12.2786 20.4283L12.1839 20.9252C12.1639 21.0298 12.1037 21.1225 12.0156 21.1824C11.9275 21.2423 11.819 21.2651 11.7143 21.2452C11.6097 21.2253 11.5172 21.164 11.4573 21.076C11.3974 20.9878 11.3745 20.8794 11.3944 20.7747L11.4891 20.2778L11.0891 20.2015L10.9944 20.6984C10.9744 20.8031 10.9141 20.8957 10.8261 20.9556C10.738 21.0155 10.6294 21.0383 10.5248 21.0185C10.42 20.9985 10.3268 20.9372 10.2668 20.849C10.207 20.7609 10.185 20.6525 10.2049 20.5479L10.2996 20.051L9.20796 19.8429C9.10321 19.823 9.00992 19.7616 8.94997 19.6735C8.89016 19.5853 8.86816 19.477 8.88807 19.3724C8.90801 19.2678 8.96841 19.1751 9.0564 19.1151C9.14458 19.0552 9.25389 19.0325 9.35864 19.0525L9.55817 19.0905L10.4847 14.2298L10.2852 14.1917C10.1805 14.1718 10.087 14.1114 10.027 14.0232C9.96719 13.9352 9.94531 13.8267 9.96513 13.7221C9.9851 13.6174 10.0455 13.5239 10.1336 13.464C10.2218 13.404 10.331 13.3823 10.4357 13.4023L11.5274 13.6104L11.6221 13.1134C11.6421 13.0087 11.7024 12.9152 11.7906 12.8553C11.8788 12.7953 11.9879 12.7736 12.0927 12.7936C12.1972 12.8136 12.29 12.8738 12.3499 12.9619C12.4098 13.0501 12.4316 13.1592 12.4116 13.2639L12.3169 13.7608L12.7169 13.8371L12.8116 13.3402C12.8316 13.2354 12.8929 13.1422 12.9811 13.0822C13.0692 13.0225 13.1776 13.0004 13.2822 13.0203ZM10.3477 19.241L12.6298 19.676C12.9193 19.7311 13.2192 19.6695 13.4629 19.5038C13.7067 19.3381 13.8743 19.082 13.9296 18.7925C13.9848 18.503 13.9229 18.2031 13.7573 17.9593C13.5916 17.7156 13.3357 17.547 13.0462 17.4917L10.764 17.0567L10.3477 19.241ZM10.9145 16.2672L12.7506 16.6172C13.0007 16.6648 13.2595 16.6111 13.47 16.468C13.6805 16.3249 13.8256 16.104 13.8734 15.854C13.921 15.6038 13.8675 15.3443 13.7244 15.1336C13.5812 14.9232 13.3603 14.778 13.1103 14.7303L11.2742 14.3803L10.9145 16.2672Z" fill="#080808" stroke="#080808" stroke-width="0.35"/>
</svg>
