<svg width="24" height="24" viewBox="0 0 24 24" fill="none" xmlns="http://www.w3.org/2000/svg">
<path d="M8.59526 0.654236H15.4029M9.72987 0.654236V7.46189M14.2683 0.654236V7.46189M8.02795 21.6445V23.3464H8.59526V21.6445M15.9702 21.6445V23.3464H15.4029V21.6445" stroke="#080808" stroke-width="1.2" stroke-linecap="round" stroke-linejoin="round"/>
<path d="M13.1342 6.83606C14.4532 6.83606 15.5058 6.83475 16.3295 6.94544C17.1711 7.05862 17.8679 7.2991 18.4193 7.84973C18.9708 8.40081 19.2116 9.09792 19.3246 9.93958C19.4351 10.7633 19.433 11.8161 19.433 13.1349V15.9718C19.433 17.291 19.4343 18.3434 19.3236 19.1671C19.2246 19.9037 19.0282 20.5289 18.6117 21.0431L18.4193 21.257C17.8679 21.8076 17.1712 22.0481 16.3295 22.1613C15.5058 22.2719 14.4532 22.2706 13.1342 22.2706H10.8646C9.54555 22.2706 8.49217 22.2719 7.66835 22.1613C6.82684 22.0481 6.13042 21.8077 5.57948 21.257C5.0288 20.7055 4.78836 20.0089 4.67519 19.1671C4.56449 18.3434 4.56581 17.291 4.56581 15.9718V13.1349C4.56581 11.8156 4.56449 10.7625 4.67519 9.9386C4.78835 9.09692 5.0285 8.40072 5.57948 7.84973C6.13045 7.29884 6.82673 7.05859 7.66835 6.94544C8.49218 6.83477 9.54552 6.83606 10.8646 6.83606H13.1342ZM10.8646 8.08801C9.51018 8.08801 8.55638 8.0898 7.83534 8.18665C7.13244 8.28114 6.74463 8.45613 6.46523 8.73547C6.18581 9.01489 6.0109 9.40258 5.9164 10.1056C5.81951 10.8267 5.81777 11.7803 5.81776 13.1349V15.9718C5.81777 17.3263 5.81954 18.2793 5.9164 19.0001C6.01085 19.7026 6.18565 20.0911 6.46523 20.3712L6.57558 20.4708C6.84657 20.6926 7.22043 20.8374 7.83534 20.92C8.55637 21.0169 9.51022 21.0187 10.8646 21.0187H13.1342C14.4885 21.0187 15.4417 21.0169 16.1625 20.92C16.8648 20.8256 17.2535 20.6508 17.5336 20.3712L17.6332 20.2609C17.8553 19.9893 17.9998 19.615 18.0824 19.0001C18.1793 18.2793 18.181 17.3263 18.181 15.9718V13.1349C18.181 11.7802 18.1801 10.8267 18.0834 10.1056C17.9891 9.40284 17.8131 9.01479 17.5336 8.73547C17.2535 8.45595 16.8648 8.2811 16.1625 8.18665C15.4417 8.0898 14.4885 8.08801 13.1342 8.08801H10.8646ZM9.72987 10.2394C10.0755 10.2396 10.3568 10.5206 10.3568 10.8663V18.2404C10.3567 18.586 10.0755 18.8671 9.72987 18.8673C9.38423 18.8671 9.10401 18.586 9.1039 18.2404V10.8663C9.1039 10.5206 9.38415 10.2396 9.72987 10.2394ZM14.2689 10.2394C14.6145 10.2398 14.8949 10.5207 14.8949 10.8663V18.2404C14.8948 18.5859 14.6144 18.8669 14.2689 18.8673C13.9231 18.8673 13.6421 18.5861 13.642 18.2404V10.8663C13.642 10.5205 13.9231 10.2394 14.2689 10.2394Z" fill="#080808"/>
</svg>
